HIERARCHY
ROOT Hips
{
  OFFSET 51.9624 101.175 42.0877
  CHANNELS 6 Xposition Yposition Zposition Zrotation Xrotation Yrotation
  JOINT spine
  {
    OFFSET 0 8.81705 0.507024
    CHANNELS 3 Zrotation Xrotation Yrotation
    JOINT spine1
    {
      OFFSET 0 10.7766 0
      CHANNELS 3 Zrotation Xrotation Yrotation
      JOINT spine2
      {
        OFFSET 0 10.3259 0
        CHANNELS 3 Zrotation Xrotation Yrotation
        JOINT Neck
        {
          OFFSET 0 26.511 1.26395
          CHANNELS 3 Zrotation Xrotation Yrotation
          JOINT Head
          {
            OFFSET 0 8.00966 0
            CHANNELS 3 Zrotation Xrotation Yrotation
            End Site
            {
              OFFSET 0 19.3879 -6.39386
            }
          }
        }
        JOINT RightShoulder
        {
          OFFSET -4.34795 11.1512 -0.605422
          CHANNELS 3 Zrotation Xrotation Yrotation
          JOINT RightArm
          {
            OFFSET 0 14.6258 0
            CHANNELS 3 Zrotation Xrotation Yrotation
            JOINT RightArmRoll
            {
              OFFSET 0 7.3834 0
              CHANNELS 3 Zrotation Xrotation Yrotation
              JOINT RightForeArm
              {
                OFFSET 0 21.5052 0
                CHANNELS 3 Zrotation Xrotation Yrotation
                JOINT RightForeArmRoll
                {
                  OFFSET 0 8.28532 0
                  CHANNELS 3 Zrotation Xrotation Yrotation
                  JOINT RightHand
                  {
                    OFFSET 0 16.6268 0
                    CHANNELS 3 Zrotation Xrotation Yrotation
                    End Site
                    {
                      OFFSET 0 0 0
                    }
                  }
                }
              }
            }
          }
        }
        JOINT LeftShoulder
        {
          OFFSET 4.34795 11.1512 -0.605422
          CHANNELS 3 Zrotation Xrotation Yrotation
          JOINT LeftArm
          {
            OFFSET 0 14.6258 0
            CHANNELS 3 Zrotation Xrotation Yrotation
            JOINT LeftArmRoll
            {
              OFFSET 0 7.3834 0
              CHANNELS 3 Zrotation Xrotation Yrotation
              JOINT LeftForeArm
              {
                OFFSET 0 21.5052 0
                CHANNELS 3 Zrotation Xrotation Yrotation
                JOINT LeftForeArmRoll
                {
                  OFFSET 0 8.28532 0
                  CHANNELS 3 Zrotation Xrotation Yrotation
                  JOINT LeftHand
                  {
                    OFFSET 0 16.6268 0
                    CHANNELS 3 Zrotation Xrotation Yrotation
                    End Site
                    {
                      OFFSET 0 0 0
                    }
                  }
                }
              }
            }
          }
        }
      }
    }
  }
  JOINT RightUpLeg
  {
    OFFSET -7.8151 -1.43309 -1.20217
    CHANNELS 3 Zrotation Xrotation Yrotation
    JOINT RightUpLegRoll
    {
      OFFSET 0 19.4959 0
      CHANNELS 3 Zrotation Xrotation Yrotation
      JOINT RightLeg
      {
        OFFSET 0 -24.1427 0
        CHANNELS 3 Zrotation Xrotation Yrotation
        JOINT RightLegRoll
        {
          OFFSET 0 24.2217 0
          CHANNELS 3 Zrotation Xrotation Yrotation
          JOINT RightFoot
          {
            OFFSET 0 20.1605 0
            CHANNELS 3 Zrotation Xrotation Yrotation
            JOINT RightToeBase
            {
              OFFSET 0 16.8532 0
              CHANNELS 3 Zrotation Xrotation Yrotation
              End Site
              {
                OFFSET 0.00714343 8.16187 -0.94078
              }
            }
          }
        }
      }
    }
  }
  JOINT LeftUpLeg
  {
    OFFSET 7.8151 -1.43309 -1.20217
    CHANNELS 3 Zrotation Xrotation Yrotation
    JOINT LeftUpLegRoll
    {
      OFFSET 0 19.496 0
      CHANNELS 3 Zrotation Xrotation Yrotation
      JOINT LeftLeg
      {
        OFFSET 0 24.1426 0
        CHANNELS 3 Zrotation Xrotation Yrotation
        JOINT LeftLegRoll
        {
          OFFSET 0 24.4456 0
          CHANNELS 3 Zrotation Xrotation Yrotation
          JOINT LeftFoot
          {
            OFFSET 0 19.9366 0
            CHANNELS 3 Zrotation Xrotation Yrotation
            JOINT LeftToeBase
            {
              OFFSET 0 16.8532 0
              CHANNELS 3 Zrotation Xrotation Yrotation
              End Site
              {
                OFFSET -0.0320138 8.16186 -0.940781
              }
            }
          }
        }
      }
    }
  }
}
MOTION
Frames: 9
Frame Time: 0.00208333
52.6145 83.5596 23.5651 -1.07937 26.8691 1.13359 0.400233 1.7086 0.117566 0.798263 7.42052 0.17311 0.798221 9.06553 0.159997 -7.01016 -9.37974 -0.376491 -2.12473 1.39958 -0.913664 56.616 -2.03829 -1.07767 121.707 52.0694 -20.322 2.06142e-005 -1.91612e-006 7.42049e-007 20.2505 10.4507 -2.05823 -1.01857e-005 2.05611e-006 -3.0042 8.02888 -4.95086 0.697462 -59.787 -3.54529 2.30725 -120.429 51.1478 21.7458 3.37934e-015 5.56597e-015 3.18055e-015 -15.4127 12.2382 2.19449 7.42921e-006 1.19247e-005 3.00378 -8.02886 -4.95085 -0.697438 160.287 73.9145 18.139 180 7.01623e-015 179.328 172.823 64.0564 -177.05 4.46644e-006 -2.08493e-006 1.04625 -34.0556 78.3513 36.0299 8.13432 25.3341 -3.34529 -157.221 74.7394 -20.6482 4.5067e-006 -1.99009e-005 -0.712347 -5.14972 -65.1014 -2.06294 -4.23201e-006 -3.51514e-006 -1.25513 31.2947 77.3555 -33.1577 -8.1642 25.7564 2.77337 
52.6141 83.7274 23.5997 -1.06779 26.7876 1.14018 0.398704 1.70063 0.11927 0.794898 7.40461 0.176719 0.794803 9.04962 0.163675 -6.95529 -9.38304 -0.391388 -2.17507 1.41858 -0.930825 56.604 -2.00017 -1.05217 121.79 52.1049 -20.1787 2.06142e-005 -1.91612e-006 7.42049e-007 20.1342 10.0366 -1.96418 -1.01857e-005 2.05611e-006 -3.0042 8.02888 -4.95086 0.697462 -59.837 -3.413 2.23105 -120.345 51.3214 21.4724 -2.5842e-014 1.11319e-014 6.36111e-015 -15.2412 11.5993 2.07768 7.42921e-006 1.19247e-005 3.00378 -8.02886 -4.95085 -0.697438 160.57 73.6195 17.8329 180 -7.01623e-015 179.329 172.839 63.7346 -177.087 4.46644e-006 -2.08493e-006 1.03687 -33.7174 78.2431 35.6858 8.13509 25.3457 -3.32932 -157.688 74.4512 -20.1653 4.5067e-006 -1.99009e-005 -0.711033 -5.18222 -64.7619 -2.06323 -4.23201e-006 -3.51514e-006 -1.24173 31.0352 77.2511 -32.8862 -8.1646 25.7621 2.76558 
52.6189 83.8698 23.6363 -1.05682 26.7059 1.14722 0.397345 1.69262 0.120944 0.791915 7.3886 0.180164 0.791769 9.03361 0.16718 -6.90073 -9.38652 -0.405615 -2.22401 1.43707 -0.94717 56.5893 -1.96996 -1.03147 121.888 52.1344 -20.045 2.06142e-005 -1.91612e-006 7.42049e-007 20.0188 9.63161 -1.8732 -1.01857e-005 2.05611e-006 -3.0042 8.02888 -4.95086 0.697462 -59.8797 -3.29221 2.16128 -120.29 51.4906 21.2153 -7.55382e-015 5.56597e-015 6.36111e-015 -15.065 10.9715 1.96583 7.42921e-006 1.19247e-005 3.00378 -8.02886 -4.95085 -0.697438 160.84 73.3235 17.5405 180 7.01623e-015 179.329 172.853 63.4131 -177.122 4.46644e-006 -2.08493e-006 1.0276 -33.3867 78.1346 35.3487 8.13587 25.3574 -3.31333 -158.134 74.1617 -19.7036 4.5067e-006 -1.99009e-005 -0.709719 -5.21458 -64.4227 -2.06323 -4.23201e-006 -3.51514e-006 -1.22839 30.7793 77.1462 -32.6182 -8.16499 25.7678 2.75777 
52.6124 84.0224 23.6588 -1.04657 26.6239 1.15457 0.396194 1.68456 0.122573 0.789399 7.37249 0.183401 0.789206 9.0175 0.170468 -6.84714 -9.39016 -0.419068 -2.27096 1.45488 -0.962565 56.5717 -1.94915 -1.01652 122.004 52.1579 -19.9233 2.06142e-005 -1.91612e-006 7.42049e-007 19.9052 9.23583 -1.78543 -1.01857e-005 2.05611e-006 -3.0042 8.02888 -4.95086 0.697462 -59.9139 -3.18651 2.1 -120.274 51.6552 20.9802 -5.1684e-015 4.77083e-015 3.18055e-015 -14.8843 10.3566 1.85958 7.42921e-006 1.19247e-005 3.00378 -8.02886 -4.95085 -0.697438 161.099 73.0266 17.2602 180 7.01623e-015 179.33 172.863 63.092 -177.155 4.46644e-006 -2.08493e-006 1.01852 -33.0645 78.0262 35.0196 8.13665 25.369 -3.29744 -158.559 73.871 -19.2637 4.5067e-006 -1.99009e-005 -0.708403 -5.24703 -64.0839 -2.06309 -4.23201e-006 -3.51514e-006 -1.2151 30.5268 77.0408 -32.3538 -8.16539 25.7736 2.74992 
52.6116 84.1935 23.6874 -1.03717 26.5415 1.16211 0.395289 1.67644 0.124144 0.787434 7.35626 0.186387 0.787197 9.00127 0.173495 -6.79519 -9.39393 -0.431644 -2.31528 1.47183 -0.976877 56.5513 -1.93923 -1.00826 122.14 52.1755 -19.8161 2.06142e-005 -1.91612e-006 7.42049e-007 19.7941 8.84915 -1.70099 -1.01857e-005 2.05611e-006 -3.0042 8.02888 -4.95086 0.697462 -59.9387 -3.09951 2.0493 -120.303 51.8148 20.7729 -3.33958e-014 1.59028e-014 6.36111e-015 -14.6993 9.75601 1.75958 7.42921e-006 1.19247e-005 3.00378 -8.02886 -4.95085 -0.697438 161.348 72.7291 16.9905 180 7.01623e-015 179.33 172.871 62.7714 -177.186 4.46644e-006 -2.08493e-006 1.0097 -32.7518 77.918 34.6988 8.13742 25.3804 -3.28177 -158.962 73.5793 -18.8461 4.5067e-006 -1.99009e-005 -0.707083 -5.27983 -63.7456 -2.06296 -4.23201e-006 -3.51514e-006 -1.20185 30.2778 76.9348 -32.0929 -8.16579 25.7793 2.74202 
52.6113 84.3382 23.7176 -1.02875 26.4589 1.16969 0.394669 1.66825 0.12564 0.786105 7.33989 0.189081 0.785828 8.9849 0.176216 -6.74554 -9.39784 -0.443239 -2.35638 1.48774 -0.989973 56.5282 -1.94169 -1.00766 122.299 52.1873 -19.7258 2.06142e-005 -1.91612e-006 7.42049e-007 19.6862 8.47153 -1.62 -1.01857e-005 2.05611e-006 -3.0042 8.02888 -4.95086 0.697462 -59.9528 -3.03483 2.01125 -120.385 51.969 20.5991 7.15625e-015 0 6.36111e-015 -14.5099 9.17142 1.66649 7.42921e-006 1.19247e-005 3.00378 -8.02886 -4.95085 -0.697438 161.589 72.431 16.7296 180 7.01623e-015 179.331 172.877 62.4513 -177.216 4.46644e-006 -2.08493e-006 1.00123 -32.4495 77.8103 34.3871 8.13819 25.3915 -3.26645 -159.342 73.2864 -18.4515 4.5067e-006 -1.99009e-005 -0.705758 -5.31319 -63.4079 -2.06299 -4.23201e-006 -3.51514e-006 -1.18864 30.0321 76.8283 -31.8354 -8.1662 25.7852 2.73407 
52.6144 84.5011 23.7522 -1.02126 26.3758 1.17851 0.39438 1.66008 0.1271 0.785513 7.32355 0.19148 0.785228 8.96856 0.178625 -6.69768 -9.40145 -0.454416 -2.39456 1.50248 -1.00246 56.496 -1.95991 -1.01626 122.496 52.1906 -19.6564 2.06142e-005 -1.91612e-006 7.42049e-007 19.5764 8.10197 -1.54225 -1.01857e-005 2.05611e-006 -3.0042 8.02888 -4.95086 0.697462 -59.9564 -2.98904 1.98377 -120.521 52.1208 20.4546 2.38542e-015 2.38542e-015 3.18055e-015 -14.3095 8.59148 1.57792 7.42921e-006 1.19247e-005 3.00373 -8.02886 -4.95085 -0.697438 161.816 72.1317 16.4839 180 7.01623e-015 179.331 172.878 62.132 -177.242 4.46644e-006 -2.08493e-006 0.992909 -32.1548 77.7026 34.0823 8.13896 25.4028 -3.251 -159.704 72.9928 -18.0762 4.5067e-006 -1.99009e-005 -0.704404 -5.34729 -63.0707 -2.06315 -4.23201e-006 -3.51514e-006 -1.17541 29.7884 76.7207 -31.58 -8.16662 25.7912 2.72592 
52.6092 84.6428 23.7809 -1.01453 26.2923 1.18956 0.394412 1.65198 0.128569 0.785637 7.30737 0.19363 0.785392 8.95238 0.180765 -6.6505 -9.40448 -0.46571 -2.43074 1.51619 -1.01493 56.45 -1.99464 -1.03407 122.737 52.1836 -19.608 2.06142e-005 -1.91612e-006 7.42049e-007 19.4599 7.73986 -1.4674 -1.01857e-005 2.05611e-006 -3.0042 8.02888 -4.95086 0.697462 -59.9512 -2.95546 1.96293 -120.703 52.2728 20.3301 -3.1408e-014 1.43125e-014 3.18055e-015 -14.093 8.00607 1.49129 7.42921e-006 1.19247e-005 3.00358 -8.02886 -4.95085 -0.697438 162.025 71.8306 16.2584 180 7.01623e-015 179.331 172.873 61.8139 -177.264 4.46644e-006 -2.08493e-006 0.984538 -31.8643 77.5944 33.7819 8.13977 25.4145 -3.23492 -160.053 72.6986 -17.7156 4.5067e-006 -1.99009e-005 -0.703002 -5.38199 -62.7335 -2.06328 -4.23201e-006 -3.51514e-006 -1.16214 29.5458 76.6117 -31.3257 -8.16705 25.7974 2.71747 
52.6117 84.818 23.8068 -1.00847 26.2082 1.20247 0.394721 1.64394 0.130042 0.786372 7.2913 0.195565 0.786205 8.93631 0.182672 -6.60371 -9.40712 -0.476969 -2.46527 1.52903 -1.02724 56.3927 -2.04342 -1.05979 123.015 52.1674 -19.5775 2.06142e-005 -1.91612e-006 7.42049e-007 19.3378 7.38561 -1.39538 -1.01857e-005 2.05611e-006 -3.0042 8.02888 -4.95086 0.697462 -59.9379 -2.93283 1.94803 -120.925 52.4243 20.2237 -1.27222e-014 1.11319e-014 6.36111e-015 -13.8626 7.41859 1.40695 7.42921e-006 1.19247e-005 3.00336 -8.02886 -4.95085 -0.697438 162.217 71.528 16.0505 180 3.24589e-014 179.332 172.863 61.4967 -177.283 4.46644e-006 -2.08493e-006 0.976128 -31.5782 77.4855 33.4859 8.14061 25.4266 -3.21832 -160.388 72.404 -17.3687 4.5067e-006 -1.99009e-005 -0.701563 -5.41706 -62.3964 -2.06327 -4.23201e-006 -3.51514e-006 -1.14885 29.3047 76.5014 -31.073 -8.1675 25.8038 2.70879 
